# xmcd
# Copyright (C) 1995-1998 Ti Kan
#
# Track frame offsets:
#       150
#       17580
#       33726
#
# Disc length: 713 seconds
#
# Revision: 0
# Processed by: cddbd v1.4PL0 Copyright (c) Steve Scherf et al.
# Submitted via: CD-Transfer v1.0
#
DISCID=1c02c703
DTITLE=Diva - Diva
DYEAR=2001
DGENRE=
TTITLE0=Iron Shoes
TTITLE1=She's Calling It "e"
TTITLE2=Hiding (What She's Gonna Show)
EXTD=
EXTT0=
EXTT1=
EXTT2=
PLAYORDER=
